<svg width="125" height="122" viewBox="0 0 125 122" fill="none" xmlns="http://www.w3.org/2000/svg">
<path d="M54.4881 0.467583C29.5121 3.57404 8.22464 21.7036 2.007 45.1294C-3.52564 66.3144 2.53392 88.1106 18.2888 103.286C23.716 108.532 28.0368 111.587 34.4125 114.643C43.4228 119.022 52.5912 121.11 62.5499 121.11C80.2017 121.11 94.9554 115.05 107.391 102.828C115.663 94.6291 120.511 86.4301 123.567 75.4301C124.832 70.9487 124.937 69.4718 124.99 61.0182C125.042 52.259 124.937 51.2404 123.567 46.097C121.934 40.1387 119.404 33.9767 117.086 30.4119C115.347 27.6619 114.978 27.4072 112.554 27.4072C111.079 27.4072 110.341 27.7128 109.551 28.7313C108.023 30.6156 108.128 31.4304 110.763 36.472C121.776 57.708 117.613 82.1523 100.172 98.2448C92.7951 105.069 85.4182 109.041 75.5121 111.536C70.1376 112.86 60.3369 113.319 54.8569 112.453C32.9898 109.092 15.6542 93.9161 10.0689 73.2912C8.96232 69.2681 8.69886 67.1292 8.69886 61.2728C8.59348 51.6988 10.0162 45.5368 14.2315 37.3377C27.4572 11.6712 59.6519 0.925911 86.1032 13.4027C88.7905 14.6758 92.5316 16.8147 94.4812 18.2406C100.014 22.2638 100.962 22.5693 103.386 20.736C104.44 19.9212 104.756 19.2591 104.756 17.6805C104.756 15.2869 103.597 14.0647 97.8008 10.2962C85.3655 2.24998 69.3999 -1.36574 54.4881 0.467583Z" fill="#00FFB7"/>
<path d="M43.8971 25.7266C41.3152 26.9997 39.5763 28.884 38.3644 31.634C36.731 35.2497 37.0471 41.2589 38.9967 44.9765C45.6359 57.5042 61.5488 54.194 61.5488 40.2913C61.5488 33.7729 58.6508 28.5784 53.5924 26.134C50.5889 24.6572 46.3209 24.4535 43.8971 25.7266ZM50.0093 33.5182C52.7493 34.9441 54.0666 41.4117 52.117 43.7543C51.1158 44.9256 51.0105 44.9256 49.6405 44.2126C47.4274 43.0413 46.1628 40.9534 45.8467 38.1525C45.4778 34.1293 47.2693 32.1432 50.0093 33.5182Z" fill="#00FFB7"/>
<path d="M71.5601 26.287C61.8648 31.1249 60.9691 46.8609 70.0321 51.4952C72.4559 52.7683 73.299 52.9211 75.6701 52.7174C82.8889 52.0044 88.0527 45.7406 88.1054 37.5925C88.1581 27.5092 80.0435 21.9583 71.5601 26.287ZM78.6735 34.0277C80.8339 36.3193 79.3058 42.2776 76.1443 44.1109C74.669 44.9767 74.6163 44.9257 73.3517 43.5508C71.244 41.2082 71.7709 37.236 74.6163 34.3841C76.2497 32.7545 77.3562 32.6527 78.6735 34.0277Z" fill="#00FFB7"/>
<path d="M22.5568 44.2635C17.8145 46.9116 16.1284 53.3792 18.6049 59.1338C22.8729 69.0134 35.5717 71.305 39.9451 63.0041C41.2624 60.5597 41.3678 55.569 40.1559 52.2079C39.102 49.1524 35.8351 45.6385 32.8317 44.2635C29.6702 42.8376 25.086 42.8376 22.5568 44.2635ZM30.039 52.3607C31.7252 53.6338 32.6736 55.8745 32.4629 58.0134C32.3575 59.1847 31.9886 59.7958 31.409 59.8977C28.7744 60.4069 24.9279 54.7542 26.1925 52.4116C26.9829 51.0875 28.3529 51.0366 30.039 52.3607Z" fill="#00FFB7"/>
<path d="M92.2154 44.5184C85.3654 47.8285 82.2566 56.5877 85.6816 63.0553C89.7916 70.9488 101.226 69.3701 106.231 60.2544C107.391 58.1155 107.654 57.0461 107.654 53.5831C107.654 49.9674 107.496 49.2545 106.179 47.3702C103.333 43.1434 97.5373 41.9721 92.2154 44.5184ZM99.2761 52.5646C99.7503 54.3979 98.5911 57.2498 96.7996 58.7266C95.008 60.1525 94.2177 60.3053 93.2692 59.3887C91.8992 58.0646 93.3219 53.7868 95.7457 52.0044C97.2211 50.935 98.9072 51.1896 99.2761 52.5646Z" fill="#00FFB7"/>
<path d="M57.3335 55.2129C52.802 56.3842 50.1147 58.2175 44.2659 64.023C37.2579 70.9489 35.9933 73.2915 35.9933 79.3516C35.9933 83.0692 36.2041 84.0368 37.416 86.2775C39.2075 89.5877 43.4228 93.2543 46.637 94.3238C49.7459 95.3423 54.8043 95.3932 58.1766 94.3747C61.5488 93.4071 64.4469 93.4071 67.5557 94.4256C70.9807 95.546 77.3564 95.1895 80.3598 93.7127C86.1032 90.8099 89.054 86.4303 89.3701 80.1155C89.6863 73.648 88.5798 71.3563 81.519 64.3286C75.3541 58.1666 71.9291 55.9768 66.9234 54.9582C63.2877 54.2453 60.9165 54.2962 57.3335 55.2129ZM66.6073 63.4119C68.6622 64.0739 70.2957 65.2962 74.5637 69.3702C77.5145 72.222 80.2017 75.1757 80.4652 75.9905C81.361 78.2313 81.1502 81.3377 79.9383 83.222C77.6725 86.7868 73.9841 87.7544 68.7149 86.2266C65.448 85.259 60.5477 85.259 56.8066 86.2266C55.2258 86.634 53.1181 86.9905 52.117 86.9905C46.9005 86.9905 42.8432 81.2359 44.6874 76.4998C45.3197 74.9211 52.802 67.1295 55.7527 64.9906C59.125 62.5971 62.4973 62.0878 66.6073 63.4119Z" fill="#00FFB7"/>
</svg>
